Coordinates
version=1
nRows=17
nColumns=40
inDegrees=yes

Units are S.I. units (second, meters, Newtons, ...)
If the header above contains a line with 'inDegrees', this indicates whether rotational values are in degrees (yes) or radians (no).

endheader
time	pelvis_tilt	pelvis_list	pelvis_rotation	pelvis_tx	pelvis_ty	pelvis_tz	hip_flexion_r	hip_adduction_r	hip_rotation_r	knee_angle_r	knee_angle_r_beta	ankle_angle_r	subtalar_angle_r	mtp_angle_r	hip_flexion_l	hip_adduction_l	hip_rotation_l	knee_angle_l	knee_angle_l_beta	ankle_angle_l	subtalar_angle_l	mtp_angle_l	lumbar_extension	lumbar_bending	lumbar_rotation	arm_flex_r	arm_add_r	arm_rot_r	elbow_flex_r	pro_sup_r	wrist_flex_r	wrist_dev_r	arm_flex_l	arm_add_l	arm_rot_l	elbow_flex_l	pro_sup_l	wrist_flex_l	wrist_dev_l
      1.46000000	     -0.44487871	      7.97951774	    -89.67071537	      0.26858462	      0.93734967	      0.54611553	     29.98202209	     -2.82974289	     -4.04243844	     53.56927030	      0.93496014	     -1.48502368	      0.00000000	      0.00000000	     12.94456443	      3.25769371	     -3.72246184	      8.98944791	      0.15689546	     -0.64543128	      0.00000000	      0.00000000	      2.53419044	      0.19784493	     -5.03213752	      0.00000000	      0.00000000	      0.00000000	      0.00000000	      0.00000000	      0.00000000	      0.00000000	      0.00000000	      0.00000000	      0.00000000	      0.00000000	      0.00000000	      0.00000000	      0.00000000
      1.47000000	     -0.55896114	      8.12711587	    -89.62780439	      0.26920004	      0.93776442	      0.55743887	     30.85804289	     -2.47632552	     -4.15039433	     50.65928360	      0.88417130	     -1.04649944	      0.00000000	      0.00000000	     11.77123630	      3.24981494	     -3.45075548	      7.94706992	      0.13870254	     -0.51825453	      0.00000000	      0.00000000	      2.52977444	      0.38186707	     -5.26333691	      0.00000000	      0.00000000	      0.00000000	      0.00000000	      0.00000000	      0.00000000	      0.00000000	      0.00000000	      0.00000000	      0.00000000	      0.00000000	      0.00000000	      0.00000000	      0.00000000
      1.48000000	     -0.58435342	      8.10846003	    -89.56589631	      0.26980769	      0.93809787	      0.56896331	     31.41832389	     -2.22461485	     -4.29011607	     47.51251136	      0.82924976	     -0.74066624	      0.00000000	      0.00000000	     10.35127545	      3.33551125	     -3.23307619	      6.79280307	      0.11855678	     -0.40383955	      0.00000000	      0.00000000	      2.33694039	      0.44461187	     -5.54274144	      0.00000000	      0.00000000	      0.00000000	      0.00000000	      0.00000000	      0.00000000	      0.00000000	      0.00000000	      0.00000000	      0.00000000	      0.00000000	      0.00000000	      0.00000000	      0.00000000
      1.49000000	     -0.58021805	      8.13642425	    -89.49024302	      0.27040088	      0.93804119	      0.58051824	     31.93774630	     -1.99541610	     -4.41808739	     44.19351098	      0.77132227	     -0.49973563	      0.00000000	      0.00000000	      9.01461501	      3.44806601	     -2.94365261	      5.71135166	      0.09968189	     -0.24012100	      0.00000000	      0.00000000	      2.21196493	      0.47366469	     -5.80893981	      0.00000000	      0.00000000	      0.00000000	      0.00000000	      0.00000000	      0.00000000	      0.00000000	      0.00000000	      0.00000000	      0.00000000	      0.00000000	      0.00000000	      0.00000000	      0.00000000
      1.50000000	     -0.54598143	      8.17325557	    -89.40511708	      0.27096203	      0.93765193	      0.59215578	     32.37251428	     -1.79335362	     -4.56082747	     40.70838043	      0.71049527	     -0.35881128	      0.00000000	      0.00000000	      7.70562453	      3.58647464	     -2.63625005	      4.67703227	      0.08162961	     -0.06243806	      0.00000000	      0.00000000	      2.10770605	      0.46843015	     -6.08700692	      0.00000000	      0.00000000	      0.00000000	      0.00000000	      0.00000000	      0.00000000	      0.00000000	      0.00000000	      0.00000000	      0.00000000	      0.00000000	      0.00000000	      0.00000000	      0.00000000
      1.51000000	     -0.48760467	      8.20013392	    -89.28529124	      0.27153878	      0.93695997	      0.60389442	     32.70661436	     -1.62998724	     -4.73324934	     37.08213674	      0.64720538	     -0.31682537	      0.00000000	      0.00000000	      6.40454998	      3.74561994	     -2.31053340	      3.69406843	      0.06447366	      0.11735707	      0.00000000	      0.00000000	      2.01475934	      0.43258020	     -6.39704910	      0.00000000	      0.00000000	      0.00000000	      0.00000000	      0.00000000	      0.00000000	      0.00000000	      0.00000000	      0.00000000	      0.00000000	      0.00000000	      0.00000000	      0.00000000	      0.00000000
      1.52000000	     -0.37717861	      8.40414277	    -89.18949747	      0.27199745	      0.93570638	      0.61565869	     33.18568862	     -1.49685864	     -4.89103574	     33.38939592	      0.58275489	     -0.26190323	      0.00000000	      0.00000000	      5.34670742	      3.94564504	     -1.92779841	      2.82869259	      0.04937000	      0.45763839	      0.00000000	      0.00000000	      2.11595790	      0.32325003	     -6.63999798	      0.00000000	      0.00000000	      0.00000000	      0.00000000	      0.00000000	      0.00000000	      0.00000000	      0.00000000	      0.00000000	      0.00000000	      0.00000000	      0.00000000	      0.00000000	      0.00000000
      1.53000000	     -0.21917817	      8.27755955	    -89.05124755	      0.27255008	      0.93462739	      0.62776211	     33.20031990	     -1.44178434	     -5.12662595	     29.58840384	      0.51641507	     -0.24288240	      0.00000000	      0.00000000	      3.84639590	      4.19427702	     -1.54499904	      1.83281275	      0.03198862	      0.60754227	      0.00000000	      0.00000000	      1.86177780	      0.18050605	     -7.00279632	      0.00000000	      0.00000000	      0.00000000	      0.00000000	      0.00000000	      0.00000000	      0.00000000	      0.00000000	      0.00000000	      0.00000000	      0.00000000	      0.00000000	      0.00000000	      0.00000000
      1.54000000	     -0.01495451	      8.28856948	    -88.91635253	      0.27304392	      0.93303053	      0.63994673	     33.33660244	     -1.41735416	     -5.33659054	     25.80120982	      0.45031606	     -0.16692758	      0.00000000	      0.00000000	      2.53736639	      4.47846625	     -1.10404705	      0.94637643	      0.01651738	      0.88684091	      0.00000000	      0.00000000	      1.78486740	     -0.02968816	     -7.30226629	      0.00000000	      0.00000000	      0.00000000	      0.00000000	      0.00000000	      0.00000000	      0.00000000	      0.00000000	      0.00000000	      0.00000000	      0.00000000	      0.00000000	      0.00000000	      0.00000000
      1.55000000	      0.25614716	      8.41842053	    -88.77830990	      0.27350351	      0.93096283	      0.65222987	     33.58141001	     -1.45152674	     -5.50612059	     22.07340792	      0.38525365	     -0.02691732	      0.00000000	      0.00000000	      1.40960979	      4.82165342	     -0.63169099	      0.19235661	      0.00335726	      1.27131842	      0.00000000	      0.00000000	      1.86631804	     -0.31868095	     -7.61458969	      0.00000000	      0.00000000	      0.00000000	      0.00000000	      0.00000000	      0.00000000	      0.00000000	      0.00000000	      0.00000000	      0.00000000	      0.00000000	      0.00000000	      0.00000000	      0.00000000
      1.56000000	      0.59906316	      8.47556737	    -88.64122015	      0.27397877	      0.92870266	      0.66469479	     33.75398096	     -1.55953712	     -5.66482365	     18.50116843	      0.32290630	      0.24878453	      0.00000000	     -0.00000000	      0.20956882	      5.22801404	     -0.16643677	     -0.51770649	     -0.00903568	      1.65384803	     -0.00000000	      0.00000000	      1.85602330	     -0.68732840	     -7.91887600	     -0.00000000	      0.00000000	     -0.00000000	      0.00000000	      0.00000000	     -0.00000000	     -0.00000000	      0.00000000	      0.00000000	      0.00000000	      0.00000000	      0.00000000	      0.00000000	      0.00000000
      1.57000000	      0.85711275	      8.25744335	    -88.47975306	      0.27436976	      0.92662215	      0.67765039	     33.53521002	     -1.58905229	     -6.01536856	     14.97431202	      0.26135105	      0.40440041	      0.00000000	      0.00000000	     -1.40281632	      5.51793559	      0.31092083	     -1.39010515	     -0.02426191	      1.92196795	      0.00000000	      0.00000000	      1.58567135	     -0.95080774	     -8.24383710	      0.00000000	      0.00000000	      0.00000000	      0.00000000	      0.00000000	      0.00000000	      0.00000000	      0.00000000	      0.00000000	      0.00000000	      0.00000000	      0.00000000	      0.00000000	      0.00000000
      1.58000000	      1.22282136	      8.18846499	    -88.32302538	      0.27479125	      0.92408662	      0.69066130	     33.57765717	     -1.72980269	     -6.25732319	     11.84976910	      0.20681749	      0.87798134	      0.00000000	      0.00000000	     -2.76961893	      5.91149968	      0.83547113	     -2.06897631	     -0.03611045	      2.30542264	      0.00000000	      0.00000000	      1.49211386	     -1.33916184	     -8.56822649	      0.00000000	      0.00000000	      0.00000000	      0.00000000	      0.00000000	      0.00000000	      0.00000000	      0.00000000	      0.00000000	      0.00000000	      0.00000000	      0.00000000	      0.00000000	      0.00000000
      1.59000000	      1.63986624	      8.27027851	    -88.17268740	      0.27515944	      0.92117612	      0.70373722	     33.85590667	     -1.92274537	     -6.41428801	      9.11940332	      0.15916361	      1.53675159	     -0.00000000	      0.00000000	     -3.87631733	      6.34283849	      1.36898708	     -2.52813232	     -0.04412423	      2.83012639	     -0.00000000	      0.00000000	      1.57877043	     -1.79646787	     -8.89615814	     -0.00000000	      0.00000000	     -0.00000000	      0.00000000	      0.00000000	      0.00000000	      0.00000000	      0.00000000	     -0.00000000	      0.00000000	      0.00000000	      0.00000000	     -0.00000000	     -0.00000000
      1.60000000	      1.92488337	      8.06089701	    -88.00667911	      0.27547060	      0.91860448	      0.71724030	     33.78615104	     -2.00200723	     -6.83057666	      6.67353978	      0.11647524	      2.01852274	      0.00000000	      0.00000000	     -5.38164950	      6.60064487	      1.80170971	     -3.10993628	     -0.05427863	      3.23413011	      0.00000000	      0.00000000	      1.36298888	     -2.08678259	     -9.15712316	      0.00000000	      0.00000000	      0.00000000	      0.00000000	      0.00000000	      0.00000000	      0.00000000	      0.00000000	      0.00000000	      0.00000000	      0.00000000	      0.00000000	      0.00000000	      0.00000000
      1.61000000	      2.25506570	      8.11106063	    -87.86253282	      0.27572732	      0.91563369	      0.73072812	     34.09614709	     -2.12466138	     -7.04715218	      4.75055580	      0.08291284	      2.78639910	      0.00000000	      0.00000000	     -6.45562530	      6.90230595	      2.30406095	     -3.37412048	     -0.05888951	      3.82943567	      0.00000000	      0.00000000	      1.45661396	     -2.43247867	     -9.46622425	      0.00000000	      0.00000000	      0.00000000	      0.00000000	      0.00000000	      0.00000000	      0.00000000	      0.00000000	      0.00000000	      0.00000000	      0.00000000	      0.00000000	      0.00000000	      0.00000000
      1.62000000	      2.45340642	      7.97783117	    -87.72283031	      0.27586233	      0.91297316	      0.74449961	     34.17561899	     -2.11546758	     -7.42699089	      3.15693936	      0.05509899	      3.31411153	      0.00000000	      0.00000000	     -7.73530239	      7.03425814	      2.70006281	     -3.63873778	     -0.06350795	      4.37515818	      0.00000000	      0.00000000	      1.35237628	     -2.63147304	     -9.70472477	      0.00000000	      0.00000000	      0.00000000	      0.00000000	      0.00000000	      0.00000000	      0.00000000	      0.00000000	      0.00000000	      0.00000000	      0.00000000	      0.00000000	      0.00000000	      0.00000000
